# xmcd CD database file
# Copyright (C) 1997 Ti Kan
# 
# Track frame offsets:
#     187
#     16505
#     28475
#     43120
#     55940
#     68915
#     84057
#     95547
#     107617
#     120865
#     134790
# 
# Disc length: 1963 seconds
# 
# Revision: 1
# Processed by: cddbd v1.4b41PL1 Copyright (c) Steve Scherf et al.
# Submitted via: DiscPlay 4.0.0
# 
DISCID=8907a90b
DTITLE=EDDY ARNOLD - LAST OF THE LOVE SONG SINGERS: THEN and NOW DISC 2: NOW
DYEAR=1900
DGENRE=
TTITLE0=SHE MAKES MY ROSES GROW
TTITLE1=ON A NIGHT LIKE THIS
TTITLE2=LAST OF THE LOVE SONG SINGERS
TTITLE3=HOW'S THE WEATHER BACK IN TENNESSEE
TTITLE4=OUT OF THE BLUE
TTITLE5=IF I HAD YOU
TTITLE6=I'VE JUST GOT A FEELIN' 'BOUT YOU
TTITLE7=WHEN THE WIND BLOWS IN CHICAGO
TTITLE8=AFRAID
TTITLE9=SAY A LONG GOODBYE
TTITLE10=I'VE SO MUCH TO BE THANKFUL FOR
EXTD=
EXTT0=
EXTT1=
EXTT2=
EXTT3=
EXTT4=
EXTT5=
EXTT6=
EXTT7=
EXTT8=
EXTT9=
EXTT10=
PLAYORDER=
